{"title":"Family Guy S12E01 Finders Keepers WEB-DL H264 (PSP-Ipod-Zune) [m","uid":8978996,"size":104115711,"categoryP":"video","categoryS":"tv_shows","magnet":"?xt=urn:btih:be26b3d106c47494b6a9a8f4e6dfdd247cdae4ca&amp;dn=Family+Guy+S12E01+Finders+Keepers+WEB-DL+H264+%28PSP-Ipod-Zune%29+%5Bm&amp;tr=udp%3A%2F%2Ftracker.openbittorrent.com%3A80&amp;tr=udp%3A%2F%2Fopen.demonii.com%3A1337&amp;tr=udp%3A%2F%2Ftracker.coppersurfer.tk%3A6969&amp;tr=udp%3A%2F%2Fexodus.desync.com%3A6969","seeders":4,"leechers":0,"uploader":"[mR12]","files":-1,"time":1380511873,"description":"Family Guy S12E01 Finders Keepers WEB-DL H264 (PSP-Ipod-Zune) [mR12]\n\nShow: Family Guy\n\nEpisode: S12E01 - Finders Keepers\n\nDescription: Quahog goes on a treasure hunt\n\nChannel: FOX\n\nFormat: MP4 [Encoded for PSP, Ipod Nano, and Zune]\n\nSize: 99.2 MiB\n\nTechnical:\nGeneral\nFormat                                   : MPEG-4\nFormat profile                           : Base Media\nCodec ID                                 : isom\nFile size                                : 99.0 MiB\nDuration                                 : 21mn 35s\nOverall bit rate                         : 641 Kbps\n\nVideo\nFormat                                   : MPEG-4 Visual\nDuration                                 : 21mn 35s\nBit rate mode                            : Constant\nBit rate                                 : 508 Kbps\nWidth                                    : 320 pixels\nHeight                                   : 240 pixels\nDisplay aspect ratio                     : 4:3\nFrame rate mode                          : Constant\nFrame rate                               : 30.000 fps\nBit depth                                : 8 bits\nScan type                                : Progressive\nCompression mode                         : Lossy\nBits/(Pixel*Frame)                       : 0.220\nStream size                              : 78.4 MiB (79%)\nLanguage                                 : English\n\nAudio\nID                                       : 1\nFormat                                   : AAC\nFormat/Info                              : Advanced Audio Codec\nFormat profile                           : LC\nCodec ID                                 : 40\nDuration                                 : 21mn 35s\nBit rate mode                            : Constant\nBit rate                                 : 128 Kbps\nChannel(s)                               : 2 channels\nChannel positions                        : Front: L R\nSampling rate                            : 44.1 KHz\nCompression mode                         : Lossy\nStream size                              : 19.7 MiB (20%)\nLanguage                                 : English\n\nSeeD:::::::::::::::::::SHaRe::::::::::::::::::eNJoY!\n","torrent":{"xt":"urn:btih:be26b3d106c47494b6a9a8f4e6dfdd247cdae4ca","amp;dn":"Family+Guy+S12E01+Finders+Keepers+WEB-DL+H264+%28PSP-Ipod-Zune%29+%5Bm","amp;tr":["udp%3A%2F%2Ftracker.openbittorrent.com%3A80","udp%3A%2F%2Fopen.demonii.com%3A1337","udp%3A%2F%2Ftracker.coppersurfer.tk%3A6969","udp%3A%2F%2Fexodus.desync.com%3A6969"],"infoHash":"be26b3d106c47494b6a9a8f4e6dfdd247cdae4ca","infoHashBuffer":{"type":"Buffer","data":[190,38,179,209,6,196,116,148,182,169,168,244,230,223,221,36,124,218,228,202]},"announce":[],"urlList":[]}}